<?xml version="1.0" standalone="no"?>
<!DOCTYPE svg PUBLIC "-//W3C//DTD SVG 20010904//EN"
 "http://www.w3.org/TR/2001/REC-SVG-20010904/DTD/svg10.dtd">
<svg version="1.0" xmlns="http://www.w3.org/2000/svg"
 width="167.000000pt" height="300.000000pt" viewBox="0 0 167.000000 300.000000"
 preserveAspectRatio="xMidYMid meet">

<g transform="translate(0.000000,300.000000) scale(0.100000,-0.100000)"
fill="#000000" stroke="none">
<path d="M705 2980 c-3 -5 -12 -7 -20 -3 -9 3 -21 0 -29 -6 -7 -6 -27 -8 -44
-5 -55 11 -91 -52 -61 -108 9 -16 6 -30 -12 -69 -13 -26 -30 -50 -39 -52 -23
-4 -93 25 -120 51 -29 27 -60 28 -93 2 -14 -11 -34 -20 -45 -20 -25 0 -62 -45
-62 -75 0 -16 -8 -25 -24 -29 -39 -10 -96 -69 -96 -101 0 -15 -11 -40 -25 -56
-39 -47 -41 -87 -9 -137 15 -23 35 -44 45 -47 9 -3 20 -16 23 -29 3 -13 26
-46 50 -72 l44 -49 31 29 c28 26 31 28 31 10 0 -11 -7 -29 -15 -40 -19 -28
-45 -155 -45 -220 0 -55 41 -181 65 -200 7 -5 17 -22 20 -36 4 -15 13 -29 21
-32 8 -3 14 -14 14 -24 0 -10 8 -27 18 -38 14 -15 20 -42 25 -109 3 -50 13
-109 21 -132 13 -38 13 -57 1 -165 -8 -68 -15 -124 -15 -124 0 -1 -10 1 -23 3
-23 5 -77 -29 -77 -49 0 -5 -9 -22 -21 -36 -12 -16 -19 -38 -18 -57 2 -36 -19
-85 -37 -85 -22 0 -34 -35 -35 -97 0 -32 -6 -73 -13 -92 -10 -28 -10 -42 0
-70 7 -20 13 -47 14 -61 0 -14 11 -47 23 -75 22 -46 28 -51 81 -68 31 -9 63
-17 71 -17 10 0 15 -11 15 -33 0 -18 5 -38 12 -45 9 -9 131 -12 489 -12 l477
0 31 26 c18 15 33 39 37 60 5 29 12 36 46 46 59 17 128 115 128 181 0 14 6 30
14 36 23 19 25 49 6 73 -9 13 -20 40 -24 61 -7 40 -50 132 -66 142 -6 3 -10
21 -10 40 0 21 -9 44 -25 63 -14 17 -25 35 -25 41 0 14 -34 31 -63 31 -34 0
-43 14 -63 98 -15 64 -16 84 -6 156 7 45 12 103 12 129 0 70 20 149 45 179 13
15 27 42 30 60 4 18 14 37 22 43 14 11 31 61 40 125 3 19 10 40 15 47 5 6 6
49 3 100 -5 66 -14 104 -36 152 -16 35 -29 66 -29 70 1 3 16 -11 34 -33 40
-46 52 -43 96 28 29 46 33 82 5 43 -12 -17 -14 -16 -33 8 -11 14 -29 25 -41
25 -12 0 -21 6 -21 13 0 22 43 103 47 90 3 -7 -3 -27 -11 -44 -9 -18 -16 -33
-16 -34 0 -1 18 -1 40 0 42 2 51 -9 28 -34 -11 -11 -10 -12 2 -5 8 5 20 9 25
9 19 0 103 86 109 111 7 26 -17 82 -38 90 -8 3 -16 27 -20 53 -7 57 -35 86
-88 96 -31 6 -40 14 -60 53 -32 63 -83 90 -138 73 -21 -6 -49 -24 -62 -39 -13
-15 -42 -32 -65 -38 -39 -10 -43 -10 -49 10 -4 12 -14 32 -24 46 -10 14 -20
41 -23 60 -7 50 -28 123 -39 137 -11 14 -344 17 -353 3z m183 -47 c-3 -42 -21
-51 -26 -15 -4 29 4 52 18 52 7 0 10 -15 8 -37z m57 20 c-4 -10 -10 -28 -12
-40 -7 -30 -21 -29 -29 2 -7 28 10 55 33 55 11 0 13 -5 8 -17z m-195 -38 c0
-33 -22 -48 -46 -32 -22 15 -64 20 -64 7 0 -5 5 -12 10 -15 15 -9 12 -42 -5
-49 -20 -7 -35 -48 -28 -76 7 -28 23 -7 23 31 0 21 11 34 49 58 27 18 68 35
92 39 36 7 43 11 40 27 -7 38 -6 48 6 52 7 3 13 -10 15 -34 3 -36 5 -38 45
-45 82 -14 143 -64 143 -118 0 -10 5 -22 10 -25 17 -10 11 -44 -12 -75 -17
-23 -19 -32 -9 -43 19 -24 3 -122 -25 -148 -31 -30 -42 -17 -15 17 22 27 28
64 12 64 -6 0 -13 -4 -16 -10 -11 -18 -62 -10 -100 16 l-38 25 -26 -25 c-14
-13 -39 -30 -55 -36 -25 -9 -34 -8 -58 10 l-29 21 7 -28 c4 -15 18 -38 33 -49
l26 -22 12 27 c6 14 12 21 12 15 1 -6 12 -23 26 -38 35 -37 87 -36 125 4 15
16 30 26 34 23 15 -15 4 -57 -23 -84 -25 -24 -37 -29 -81 -29 -41 0 -56 5 -75
25 -14 13 -25 30 -25 37 0 10 -2 10 -9 -1 -7 -10 -11 -9 -22 6 -8 11 -23 25
-34 31 -18 9 -21 20 -20 73 0 41 4 64 13 66 7 3 12 -4 12 -17 0 -23 47 -76 58
-65 4 3 -1 11 -11 16 -28 16 -19 25 22 21 21 -2 41 0 44 5 3 5 -7 8 -22 5 -30
-4 -71 12 -71 29 0 5 13 3 30 -6 43 -22 61 -18 23 5 -18 11 -33 25 -33 30 0 7
9 5 22 -4 36 -26 54 -19 24 9 -28 26 -32 40 -16 50 6 3 10 -1 10 -9 0 -8 12
-24 26 -35 46 -36 105 -23 126 27 9 22 12 24 15 9 3 -10 -3 -27 -13 -38 -21
-23 -7 -25 25 -3 22 16 23 15 19 -2 -2 -11 -18 -24 -38 -31 l-35 -12 33 0 c18
-1 42 4 52 9 16 9 18 8 14 -5 -9 -21 -48 -29 -84 -17 -17 6 -30 7 -30 2 0 -18
72 -30 99 -17 35 17 42 84 12 111 -20 18 -20 19 -1 43 34 44 11 103 -41 103
-49 0 -71 -32 -67 -98 3 -56 3 -57 -27 -60 -43 -5 -58 20 -37 64 15 32 15 36
-5 62 -29 39 -80 42 -113 6 l-25 -27 27 18 c31 19 72 14 82 -10 6 -17 -9 -21
-19 -5 -9 15 -51 12 -65 -5 -15 -18 -7 -19 21 -2 17 10 22 9 35 -8 8 -10 13
-24 11 -30 -5 -12 -53 -12 -82 0 -18 8 -19 7 -6 -8 7 -9 24 -17 37 -17 27 0
32 -15 9 -24 -8 -3 -20 -17 -27 -31 l-11 -25 -29 27 c-15 15 -28 21 -28 15 0
-26 -43 -4 -78 40 -20 25 10 92 37 83 18 -5 19 -2 14 32 -4 21 -12 44 -20 51
-16 17 -16 17 3 36 8 9 26 16 40 16 13 0 24 5 24 10 0 14 47 13 56 -2 5 -7 10
-4 16 11 7 19 11 21 23 11 8 -7 15 -23 15 -35z m40 14 c0 -38 -24 -35 -28 4
-2 19 1 27 12 27 11 0 16 -10 16 -31z m234 25 c23 -9 20 -45 -4 -51 -12 -3
-20 -12 -18 -21 4 -21 28 -28 28 -8 0 9 5 16 10 16 14 0 32 -49 28 -80 -1 -14
8 -42 20 -62 18 -29 21 -41 13 -57 -8 -14 -7 -27 3 -47 18 -33 10 -124 -11
-141 -9 -7 -13 -19 -9 -28 3 -9 0 -18 -9 -21 -11 -5 -12 -11 -5 -24 16 -30 12
-48 -20 -80 -27 -28 -59 -42 -45 -20 3 5 2 18 -3 27 -11 20 2 63 18 63 5 0 10
-9 10 -20 0 -11 5 -20 11 -20 7 0 9 10 5 26 -4 14 -2 31 3 38 7 8 6 26 -1 54
-6 23 -7 50 -3 59 5 10 7 25 6 33 -1 8 3 37 8 65 7 38 6 56 -5 77 -8 15 -14
43 -14 62 0 26 -5 36 -20 41 -11 3 -28 17 -39 31 -10 13 -24 24 -30 24 -18 0
-13 22 11 47 22 24 35 27 62 17z m-339 -74 c3 -5 1 -10 -4 -10 -6 0 -11 5 -11
10 0 6 2 10 4 10 3 0 8 -4 11 -10z m292 -87 c14 -6 11 -9 -16 -13 -19 -3 -36
-11 -39 -18 -3 -11 0 -12 15 -3 27 14 46 -4 32 -31 -12 -22 -37 -23 -61 -1
-24 21 -23 39 4 57 25 18 38 19 65 9z m415 -38 c6 -14 17 -25 24 -25 7 0 18
-9 24 -21 14 -26 -1 -47 -38 -51 -19 -2 -28 -10 -30 -25 -5 -32 16 -29 53 6
l30 30 50 -16 c70 -22 85 -38 85 -88 0 -33 6 -47 30 -70 35 -34 40 -65 10 -65
-11 0 -23 7 -26 15 -4 8 -10 15 -16 15 -5 0 0 -12 11 -26 25 -31 27 -48 6 -40
-8 3 -15 1 -15 -5 0 -6 -4 -7 -10 -4 -5 3 -10 -4 -10 -16 0 -18 -2 -19 -15 -9
-8 7 -15 24 -15 39 0 15 -5 32 -12 39 -26 26 -78 8 -78 -27 0 -8 -9 -24 -20
-36 -27 -29 -17 -53 25 -61 29 -5 34 -10 37 -40 5 -40 -9 -44 -38 -11 -11 12
-30 29 -43 37 -21 14 -23 20 -16 68 4 32 12 52 20 52 7 0 18 7 25 15 11 13 8
15 -14 15 -24 0 -26 4 -26 39 0 45 19 65 55 58 16 -3 24 0 22 7 -2 6 -20 12
-40 14 -20 2 -37 7 -37 13 0 5 -4 9 -10 9 -5 0 -10 -5 -10 -11 0 -6 -11 -20
-25 -31 -14 -11 -25 -26 -25 -34 0 -19 16 -18 24 2 9 23 26 7 26 -26 0 -27
-11 -40 -66 -78 -17 -10 -14 -12 21 -10 54 4 59 -22 11 -66 -26 -24 -35 -38
-30 -51 5 -13 3 -16 -7 -13 -26 9 -22 54 7 77 30 24 26 35 -14 36 -25 0 -27 3
-27 40 0 39 1 40 33 37 36 -2 41 7 12 26 -28 17 -25 36 11 77 18 20 29 39 25
42 -12 12 -40 -11 -56 -45 -20 -42 -40 -41 -40 1 0 18 6 39 13 46 10 11 10 14
0 18 -7 3 -13 13 -13 23 0 10 -5 22 -10 25 -7 4 -9 -2 -4 -19 7 -31 -10 -56
-37 -56 -11 0 -27 -9 -36 -20 -13 -14 -19 -16 -25 -7 -15 24 -7 35 37 54 25
10 45 21 45 26 0 14 -37 7 -60 -13 -27 -24 -46 -13 -35 20 9 27 66 53 100 44
20 -5 25 -2 31 20 8 34 40 56 81 56 26 0 36 -6 45 -25z m-1013 -21 c12 -15 21
-33 21 -40 0 -8 14 -13 40 -12 47 0 90 -24 90 -52 0 -23 -22 -26 -39 -6 -17
20 -51 27 -51 10 0 -8 8 -14 18 -14 26 -1 65 -37 58 -56 -5 -13 -9 -13 -32 5
-15 12 -35 21 -45 21 -15 0 -19 8 -20 38 -1 23 -3 28 -6 15 -2 -13 -11 -23
-19 -23 -17 0 -17 0 2 -39 9 -17 13 -38 10 -46 -7 -21 -36 -19 -36 2 0 24 -30
53 -54 53 -18 0 -16 -4 12 -33 37 -38 42 -73 12 -82 -31 -10 -23 -27 11 -23
40 4 55 -16 40 -56 -9 -23 -16 -27 -36 -22 -30 8 -42 -10 -16 -24 26 -14 43
-44 35 -64 -9 -22 -24 -20 -24 4 0 12 -12 26 -30 35 -23 12 -30 22 -30 46 0
29 1 30 35 23 45 -8 45 7 0 29 -37 18 -56 60 -36 80 8 8 15 6 26 -9 14 -18 14
-18 15 4 0 30 -50 75 -67 60 -7 -6 -24 -8 -37 -4 -15 4 -28 0 -37 -10 -11 -13
-9 -14 14 -9 38 10 57 -9 57 -56 0 -35 -2 -39 -26 -39 -22 0 -25 -2 -14 -15 7
-8 21 -15 31 -15 16 0 19 -8 19 -47 0 -46 -20 -83 -44 -83 -6 0 -16 -10 -21
-22 -16 -34 -36 -35 -32 -1 5 40 12 50 47 56 22 5 30 12 30 27 0 11 -7 23 -15
26 -8 4 -15 12 -15 19 0 7 -9 24 -20 38 -18 23 -24 25 -46 15 -13 -6 -27 -23
-30 -37 -9 -43 -13 -51 -24 -51 -5 0 -10 7 -10 16 0 9 -5 12 -12 8 -8 -5 -9
-2 -4 11 5 15 4 16 -9 5 -12 -10 -15 -10 -15 3 0 8 7 20 15 27 8 7 15 17 15
23 0 5 -9 2 -20 -8 -19 -17 -50 -15 -50 4 0 6 14 26 30 44 19 22 30 46 30 64
0 45 25 70 86 88 l55 16 30 -32 c24 -26 32 -29 44 -19 19 15 4 37 -27 42 -12
2 -26 10 -31 20 -9 13 -3 24 29 57 49 50 91 55 123 15z m186 -94 c4 -13 14
-19 28 -17 17 2 23 -4 25 -25 3 -22 -2 -30 -22 -39 -32 -15 -63 -5 -46 15 8
11 8 20 1 35 -13 24 -14 51 -2 51 5 0 12 -9 16 -20z m676 -93 c-7 -17 -18 -27
-30 -27 -11 0 -24 -8 -30 -17 -15 -27 -24 -8 -17 32 6 30 11 35 36 35 16 0 32
5 36 12 13 20 16 -6 5 -35z m-767 6 c18 7 44 -49 29 -64 -6 -6 -14 -5 -23 6
-7 8 -21 15 -31 15 -20 0 -24 4 -33 43 -7 28 -7 28 19 11 13 -9 31 -14 39 -11z
m80 -83 c20 -79 23 -144 8 -163 -7 -8 -14 -33 -16 -57 -2 -23 -9 -47 -15 -53
-6 -6 -11 -21 -11 -33 0 -13 -5 -26 -10 -29 -6 -3 -10 -28 -10 -55 0 -27 -4
-52 -10 -55 -6 -4 -10 6 -10 22 0 15 -9 42 -20 58 -19 29 -27 65 -13 65 3 0
15 -7 25 -17 27 -25 31 -10 8 30 -14 23 -17 38 -10 42 5 3 13 -1 16 -9 3 -9
12 -16 20 -16 11 0 10 9 -6 40 -22 43 -17 77 6 45 22 -30 29 -8 11 30 -19 40
-22 75 -7 75 5 0 16 -15 24 -32 17 -39 21 -12 5 29 -12 29 -19 168 -8 155 3
-4 13 -36 23 -72z m60 55 c-5 -11 -2 -13 10 -9 22 8 22 -33 0 -65 l-17 -23
-23 28 c-28 35 -30 52 -6 70 23 18 43 17 36 -1z m526 -30 c-4 -24 -3 -48 1
-52 4 -4 -1 -28 -12 -52 -23 -53 -20 -80 5 -33 9 18 21 30 26 27 14 -9 12 -25
-5 -59 -8 -15 -15 -35 -15 -42 0 -17 17 -18 23 -1 2 6 8 9 12 4 5 -4 1 -23 -8
-42 -9 -20 -17 -38 -17 -40 0 -11 29 -4 33 8 2 6 8 8 13 4 5 -5 1 -22 -9 -39
-19 -33 -13 -54 7 -25 7 9 16 17 20 17 12 0 6 -46 -9 -66 -8 -10 -15 -34 -15
-51 0 -18 -4 -33 -10 -33 -5 0 -10 20 -10 44 0 25 -11 68 -25 100 -14 31 -25
70 -25 87 0 16 -7 41 -16 54 -18 28 -14 76 13 178 19 68 33 75 23 12z m-265
15 c4 -6 1 -17 -5 -25 -15 -18 1 -20 19 -2 11 10 13 9 9 -3 -8 -25 -55 -47
-75 -34 -29 18 -38 41 -24 58 15 18 66 22 76 6z m380 -14 c19 -14 19 -15 1
-35 -11 -12 -31 -21 -48 -21 -19 0 -28 -4 -25 -12 2 -7 16 -12 31 -10 40 4 46
-26 11 -54 -33 -26 -48 -23 -39 10 3 14 -1 27 -10 35 -22 19 -20 45 7 75 25
29 45 32 72 12z m-775 -27 c28 -27 31 -34 21 -55 -6 -13 -15 -24 -21 -24 -6 0
-8 -10 -4 -24 9 -38 -4 -48 -31 -24 -36 31 -33 58 5 58 20 0 30 5 30 15 0 10
-10 15 -28 15 -16 0 -37 9 -47 20 -20 23 -19 25 15 39 14 5 25 10 26 10 1 1
16 -13 34 -30z m-274 -84 c22 -44 17 -65 -14 -65 -8 0 -22 -10 -32 -22 -15
-19 -20 -20 -34 -9 -9 7 -16 18 -16 23 0 6 7 5 15 -2 9 -8 15 -9 15 -2 0 6 -5
14 -10 17 -21 13 2 24 40 21 22 -2 40 -2 40 0 0 2 -9 18 -20 36 -21 35 -25 48
-12 48 4 0 17 -20 28 -45z m436 21 c3 -5 14 -11 24 -12 30 -5 39 -22 22 -41
-8 -10 -18 -27 -22 -38 -7 -19 -8 -19 -26 5 -11 14 -28 37 -40 52 -11 14 -20
30 -20 35 0 12 53 11 62 -1z m-228 -62 c9 -3 25 -21 36 -39 19 -31 20 -34 3
-66 -30 -60 -33 -69 -33 -81 0 -18 -48 -85 -99 -138 -23 -25 -47 -55 -51 -67
-5 -13 -17 -23 -26 -23 -14 0 -14 3 -4 15 11 13 9 20 -9 38 -11 13 -21 26 -21
30 0 13 23 7 42 -10 17 -15 18 -15 18 2 0 10 -7 26 -16 36 -8 9 -14 28 -12 40
3 21 5 20 28 -14 14 -20 28 -37 33 -37 16 0 6 40 -13 50 -22 12 -26 35 -9 45
12 8 49 -23 49 -42 0 -7 5 -13 10 -13 17 0 11 36 -10 55 -24 22 -25 34 -4 42
10 4 24 -4 38 -22 14 -18 25 -24 29 -17 4 5 -8 27 -27 47 -31 32 -37 35 -55
23 -12 -7 -21 -21 -21 -30 0 -10 -10 -22 -22 -29 -18 -10 -20 -9 -15 6 4 9 7
30 7 46 0 19 5 29 15 29 8 0 15 -5 15 -11 0 -5 5 -7 10 -4 15 9 12 36 -7 57
-13 14 -14 21 -5 30 10 10 19 5 42 -21 17 -18 30 -36 30 -41 0 -9 32 -30 44
-30 16 0 3 33 -14 37 -32 8 -17 28 18 25 40 -4 40 3 1 39 -35 33 -33 57 5 43z
m576 -32 c0 -40 -14 -62 -40 -62 -34 0 -2 98 33 100 4 0 7 -17 7 -38z m290 23
c0 -8 -11 -22 -25 -31 -36 -23 -33 -45 5 -37 23 4 30 2 30 -10 0 -8 -9 -17
-20 -20 -19 -5 -29 -37 -12 -37 10 0 40 29 71 69 23 31 51 41 51 19 0 -6 -7
-19 -16 -29 -22 -24 -11 -53 16 -44 16 5 20 2 20 -17 0 -13 3 -33 6 -46 5 -17
3 -21 -9 -16 -9 3 -19 15 -23 26 -3 11 -14 28 -23 37 -17 17 -19 16 -49 -20
-40 -47 -42 -72 -4 -36 47 45 71 30 32 -20 -21 -27 -26 -53 -11 -53 5 0 13 9
16 20 3 11 15 25 26 30 29 16 37 -15 10 -44 -21 -23 -29 -56 -12 -56 5 0 19
16 31 36 16 25 26 32 33 25 8 -8 4 -20 -11 -41 -12 -16 -22 -37 -22 -46 0 -15
4 -14 25 6 32 30 42 20 19 -19 -15 -26 -16 -32 -4 -46 13 -15 12 -17 -5 -14
-11 3 -25 15 -32 29 -6 14 -32 46 -56 72 -25 25 -48 55 -51 66 -4 11 -13 23
-21 26 -9 3 -15 18 -15 34 0 16 -7 35 -15 42 -8 7 -15 21 -15 31 0 11 -5 28
-12 38 -18 29 15 91 47 91 15 0 25 -6 25 -15z m-525 -15 c25 -13 49 -18 64
-15 20 5 22 4 13 -8 -14 -17 -6 -27 21 -27 16 0 18 5 13 26 -6 22 -4 25 9 20
9 -3 23 -6 31 -6 23 0 28 -29 9 -50 -26 -29 -120 -28 -137 0 -15 24 -25 26
-30 5 -2 -13 -10 -10 -37 13 -24 20 -32 34 -28 45 8 22 24 21 72 -3z m335 -71
c0 -11 -4 -17 -10 -14 -5 3 -10 15 -10 26 0 11 5 17 10 14 6 -3 10 -15 10 -26z
m-484 -16 c-11 -11 -19 6 -11 24 8 17 8 17 12 0 3 -10 2 -21 -1 -24z m434 -9
c0 -9 6 -22 14 -29 12 -12 15 -11 19 7 5 18 8 19 21 8 9 -7 16 -22 16 -34 0
-12 6 -28 12 -34 7 -7 14 -34 15 -60 3 -71 4 -75 15 -105 8 -20 8 -31 0 -39
-7 -7 -12 -1 -16 19 -5 27 -24 140 -30 176 -1 9 -8 23 -14 29 -9 9 -12 7 -12
-10 0 -32 -27 -27 -35 7 -3 16 -13 32 -21 35 -14 5 -19 37 -8 49 10 10 24 -2
24 -19z m-367 -4 c3 -11 -1 -23 -7 -28 -23 -13 -38 -52 -31 -83 4 -18 3 -29
-4 -29 -6 0 -16 -11 -23 -25 -6 -13 -15 -22 -20 -19 -11 7 0 44 20 67 11 12
12 17 2 17 -8 0 -11 9 -8 24 4 21 2 23 -12 13 -10 -5 -18 -20 -18 -31 -2 -51
-18 -120 -28 -123 -14 -5 -10 101 4 132 5 11 14 32 21 48 11 28 41 38 41 12 0
-9 6 -12 15 -9 8 4 15 14 15 23 0 34 25 42 33 11z m288 -16 c7 -8 25 -22 41
-30 16 -9 28 -23 28 -35 0 -19 -1 -19 -32 3 -35 25 -67 58 -68 71 0 12 17 8
31 -9z m-211 1 c0 -20 -28 -53 -58 -67 -46 -22 -55 -13 -17 18 17 13 37 30 45
38 15 14 30 20 30 11z m80 -19 c0 -15 -12 -34 -30 -50 -17 -14 -34 -35 -39
-48 l-8 -22 -12 22 c-12 23 3 66 37 105 23 26 52 22 52 -7z m80 14 c0 -5 14
-26 32 -46 25 -28 29 -39 21 -52 -13 -22 -27 -18 -31 8 -2 12 -14 25 -27 30
-23 9 -45 38 -45 59 0 6 11 11 25 11 14 0 25 -4 25 -10z m50 -172 c0 -21 -25
-18 -42 5 -11 15 -27 27 -36 27 -8 0 -23 7 -33 16 -16 14 -18 14 -24 -5 -3
-11 -19 -30 -35 -41 -18 -13 -27 -26 -23 -35 3 -9 -1 -15 -11 -15 -11 0 -16 9
-16 31 0 36 62 109 93 109 11 0 17 8 17 21 0 15 13 5 55 -43 30 -34 55 -66 55
-70z m129 55 c8 -18 9 -29 1 -37 -7 -7 -10 -6 -10 2 0 7 -9 21 -20 32 -12 12
-18 25 -15 30 9 15 31 1 44 -27z m-386 -10 c-3 -7 -14 -18 -24 -24 -11 -5 -17
-15 -13 -20 4 -6 15 -4 30 6 34 22 33 -3 -2 -45 -30 -35 -25 -53 6 -25 11 10
20 13 20 7 0 -16 -22 -64 -38 -84 -8 -9 -11 -22 -7 -29 6 -8 13 -5 26 12 l19
24 0 -33 c0 -26 -5 -35 -25 -42 -14 -5 -25 -16 -25 -25 0 -8 -4 -15 -10 -15
-14 0 -13 23 2 38 9 9 7 16 -7 33 -19 20 -19 22 -2 51 17 29 17 32 0 50 -15
16 -15 22 -4 40 11 18 11 22 -3 30 -23 13 -20 26 16 58 31 29 53 25 41 -7z
m341 -10 c4 -9 -1 -24 -9 -33 -11 -12 -13 -20 -6 -25 16 -9 13 -41 -4 -55 -13
-11 -13 -15 0 -33 19 -27 19 -42 -1 -62 -13 -12 -14 -19 -5 -28 6 -6 11 -17
11 -25 0 -8 -12 -1 -30 16 -18 19 -30 41 -30 57 l0 27 20 -23 c29 -36 26 -2
-5 57 -28 53 -26 69 4 33 15 -18 20 -20 21 -8 0 9 -9 24 -20 34 -11 10 -20 29
-20 43 0 24 0 25 20 7 29 -26 38 -10 11 19 -29 31 -19 52 14 30 13 -8 26 -22
29 -31z m-586 7 c9 -23 7 -34 -7 -52 -9 -13 -23 -38 -31 -57 -15 -38 -119
-151 -139 -151 -8 0 -11 6 -7 16 3 8 -1 26 -10 39 -9 14 -13 32 -10 41 8 22
22 10 29 -26 4 -19 13 -30 23 -30 12 0 15 6 10 23 -24 80 -13 123 13 52 7 -19
17 -35 22 -35 20 0 20 30 -1 58 -22 30 -24 62 -4 69 7 2 14 -14 18 -37 4 -24
12 -40 20 -40 21 0 26 23 10 51 -7 13 -13 32 -14 41 0 26 21 33 27 9 3 -12 11
-20 17 -18 12 4 13 32 1 60 -5 12 -3 17 8 17 8 0 20 -13 25 -30z m782 19 c0
-6 -4 -19 -10 -29 -10 -20 -4 -50 11 -50 5 0 11 11 15 25 3 14 10 25 15 25 13
0 11 -57 -3 -79 -6 -10 -8 -26 -4 -36 10 -26 34 -1 38 38 2 18 8 32 13 32 17
0 17 -43 1 -67 -18 -26 -21 -54 -6 -63 6 -4 19 13 29 37 14 32 21 39 26 27 3
-9 -1 -33 -9 -54 -20 -48 -20 -57 1 -53 11 2 20 15 23 32 3 16 11 31 18 34 18
6 15 -38 -4 -60 -14 -14 -14 -20 -4 -33 10 -12 10 -15 -4 -15 -32 0 -145 133
-146 171 0 9 -9 24 -20 34 -22 20 -25 46 -10 76 11 20 30 26 30 8z m-333 -81
c21 -18 40 -33 42 -35 2 -1 1 -14 -3 -28 -8 -32 -26 -33 -26 0 0 15 -6 25 -14
25 -15 0 -56 45 -56 61 0 17 19 9 57 -23z m-271 0 c4 -6 2 -14 -5 -16 -8 -3
-22 -13 -31 -22 -24 -24 -35 -1 -14 29 17 23 39 27 50 9z m204 -16 c3 -12 20
-31 38 -42 17 -11 32 -24 32 -29 0 -5 9 -11 20 -14 25 -6 28 -62 4 -75 -14 -8
-14 -10 0 -21 9 -8 16 -21 16 -30 -1 -15 -2 -15 -13 0 -7 9 -22 19 -35 23 -13
4 -30 23 -39 41 l-16 33 -37 -43 c-21 -24 -41 -41 -44 -38 -13 14 -5 42 14 48
13 4 20 15 20 30 0 36 20 36 72 -1 28 -20 50 -29 53 -23 10 14 -13 38 -53 54
-18 8 -36 24 -39 35 -3 11 -9 20 -13 20 -9 0 -40 -62 -40 -79 0 -22 -20 -10
-26 15 -5 18 0 34 15 54 11 16 21 33 21 38 0 13 23 33 34 29 6 -2 13 -13 16
-25z m254 12 c3 -9 6 -23 5 -32 0 -12 -2 -13 -6 -4 -3 7 -16 17 -29 22 -13 5
-24 14 -24 20 0 16 47 11 54 -6z m-604 -40 c0 -31 -2 -35 -15 -24 -21 17 -20
-3 1 -35 15 -23 15 -27 0 -50 -9 -14 -21 -25 -26 -25 -6 0 -10 -5 -10 -11 0
-10 -28 -49 -65 -91 -22 -26 -45 -23 -45 6 0 14 -4 28 -10 31 -12 7 -14 45 -2
45 4 0 14 -15 23 -32 8 -17 21 -34 27 -36 17 -5 15 39 -3 62 -8 10 -12 23 -9
27 10 16 24 9 34 -17 6 -14 14 -22 20 -19 15 9 12 34 -5 52 -9 8 -15 22 -13
31 5 28 25 23 38 -8 9 -21 16 -28 23 -21 7 7 5 23 -8 51 -15 33 -16 45 -7 66
7 14 17 22 22 19 6 -3 10 -1 10 4 0 6 5 11 10 11 6 0 10 -16 10 -36z m716 16
c23 0 28 -48 10 -87 -15 -33 -14 -53 3 -53 4 0 13 11 19 25 6 14 16 25 22 25
16 0 11 -48 -6 -58 -17 -10 -16 -43 2 -49 7 -2 14 8 18 22 4 14 13 25 21 25
19 0 19 -19 0 -44 -8 -11 -15 -28 -15 -38 0 -30 26 -20 46 17 11 20 22 31 27
26 6 -6 3 -19 -7 -32 -9 -13 -16 -31 -16 -41 0 -21 -20 -23 -41 -5 -8 6 -28
32 -45 57 -16 24 -37 52 -46 62 -22 22 -23 40 -2 79 15 30 15 31 -5 24 -23 -7
-26 2 -14 45 4 13 8 19 11 12 2 -6 10 -12 18 -12z m-662 -24 c-7 -30 -24 -35
-24 -8 0 18 20 45 27 38 2 -2 1 -15 -3 -30z m546 -47 c18 -43 6 -46 -28 -7
-22 24 -28 36 -20 46 14 16 32 2 48 -39z m-450 27 c9 -12 5 -20 -22 -45 -18
-16 -35 -28 -37 -25 -6 6 31 84 39 84 4 0 13 -7 20 -14z m496 -62 c-8 -21 -11
-17 -20 21 -7 28 -6 29 10 13 10 -10 14 -23 10 -34z m-574 11 c-2 -14 -8 -28
-13 -31 -10 -6 -12 39 -2 49 13 14 20 6 15 -18z m520 -65 c9 -23 8 -23 -12 -5
-22 20 -27 39 -8 33 6 -2 15 -15 20 -28z m99 13 c1 -10 0 -22 -1 -28 -2 -5 -6
-23 -9 -39 -9 -42 -35 -49 -27 -7 3 17 9 45 12 61 6 32 23 41 25 13z m-551 -1
c0 -11 -22 -32 -32 -32 -5 0 -4 9 2 20 11 20 30 28 30 12z m504 0 c8 -13 -5
-52 -15 -46 -12 7 -12 54 0 54 6 0 12 -4 15 -8z m-564 -19 c0 -10 -4 -24 -9
-32 -7 -11 -10 -9 -16 8 -7 22 0 41 16 41 5 0 9 -8 9 -17z m340 -51 c0 -12 6
-25 14 -28 24 -9 27 -34 6 -51 -14 -12 -16 -20 -9 -29 12 -14 4 -34 -12 -34
-6 0 -8 4 -4 9 3 6 -4 15 -15 21 -11 6 -20 19 -20 29 0 10 -6 24 -14 30 -10 9
-18 2 -37 -34 -20 -38 -26 -42 -37 -31 -11 11 -11 18 -3 35 7 11 17 21 24 21
7 0 18 9 25 20 16 26 28 25 59 -6 14 -14 27 -23 30 -20 7 7 -16 46 -27 46 -6
0 -10 8 -10 18 0 10 -5 23 -12 30 -9 9 -17 7 -35 -10 -13 -12 -23 -27 -23 -35
0 -13 -12 -17 -22 -7 -10 10 24 65 45 73 30 11 77 -18 77 -47z m-166 39 c3 -4
-6 -19 -19 -31 -33 -31 -31 -41 5 -33 37 7 42 -18 9 -41 -14 -9 -19 -21 -15
-31 4 -11 2 -15 -6 -12 -7 2 -13 15 -13 28 0 13 -6 33 -12 44 -20 36 30 111
51 76z m242 -8 c3 -10 11 -28 17 -41 8 -17 8 -28 0 -40 -12 -20 -35 -22 -41
-4 -2 7 2 10 12 6 19 -7 22 26 4 44 -7 7 -9 12 -5 12 4 0 3 9 -3 20 -8 14 -8
20 0 20 6 0 13 -8 16 -17z m-511 -14 c8 -25 -2 -69 -15 -69 -6 0 -15 -11 -20
-25 -5 -14 -16 -25 -24 -25 -8 0 -18 -9 -21 -20 -3 -11 -10 -20 -15 -20 -5 0
-7 6 -4 14 3 8 0 24 -6 36 -11 20 -10 21 22 18 33 -3 36 1 23 33 -5 13 -1 15
21 11 26 -5 27 -4 21 32 -6 38 7 50 18 15z m585 -29 c0 -22 -3 -40 -8 -40 -4
0 -7 18 -7 40 0 22 3 40 7 40 5 0 8 -18 8 -40z m144 5 c-6 -33 -5 -35 20 -35
23 0 26 -3 20 -26 -6 -25 -6 -25 31 -18 l38 7 -16 -23 c-12 -17 -13 -28 -6
-42 7 -12 6 -18 -1 -18 -6 0 -15 11 -20 25 -5 14 -17 25 -25 25 -9 0 -19 8
-22 18 -4 9 -15 29 -25 43 -15 20 -17 31 -9 52 15 38 23 34 15 -8z m-570 1
c-3 -13 -1 -27 5 -31 6 -3 9 -11 5 -16 -3 -5 -10 -7 -15 -4 -12 8 -12 75 1 75
6 0 8 -10 4 -24z m-44 -40 c-16 -17 -31 4 -18 27 11 21 11 21 18 2 4 -11 4
-24 0 -29z m524 28 c8 -21 1 -28 -18 -21 -9 4 -13 13 -10 22 8 20 20 19 28 -1z
m-594 -35 c0 -10 5 -19 10 -19 6 0 10 -41 10 -102 0 -72 5 -112 15 -132 19
-36 19 -123 0 -169 -8 -20 -15 -51 -15 -69 0 -30 -1 -31 -14 -12 -14 18 -15
18 -21 -11 -16 -78 -38 -152 -50 -171 -13 -20 -12 -23 8 -30 18 -6 15 -8 -18
-11 -22 -2 -46 -11 -52 -20 -17 -22 -20 -16 -24 37 -4 45 -4 45 27 42 36 -3
52 12 60 59 5 32 5 33 -10 15 -15 -19 -16 -19 -16 -1 0 18 -1 18 -15 -1 -15
-18 -16 -17 -9 15 5 25 3 32 -6 26 -15 -10 -7 59 17 148 13 46 15 86 10 186
l-6 128 39 38 c24 24 40 48 40 63 0 13 4 20 10 17 6 -3 10 -15 10 -26z m669
-15 c18 -18 21 -28 13 -36 -8 -8 -14 -4 -21 15 -6 15 -15 27 -21 27 -5 0 -10
5 -10 10 0 17 14 11 39 -16z m-34 -30 c8 -4 15 -10 15 -16 0 -5 12 -25 26 -44
22 -29 28 -51 36 -132 5 -53 8 -121 5 -149 -2 -29 0 -53 4 -53 10 0 22 157 17
239 -3 52 -1 67 8 60 21 -18 26 -141 9 -232 -15 -79 -15 -88 1 -124 22 -51 24
-92 4 -85 -13 5 -13 3 -1 -11 9 -12 10 -17 2 -17 -6 0 -14 14 -17 30 -7 33
-24 41 -24 11 0 -37 19 -68 44 -75 14 -3 26 -14 26 -22 0 -9 11 -30 25 -46 28
-33 27 -43 -4 -33 -11 3 -21 16 -23 28 -2 12 -7 21 -13 19 -5 -2 -9 -14 -7
-27 4 -31 -8 -32 -35 -2 -27 29 -83 170 -83 209 0 18 -11 45 -25 63 -28 38
-32 88 -20 277 6 89 5 121 -5 133 -7 8 -9 23 -5 32 6 16 8 16 16 -5 5 -12 15
-25 24 -28z m-91 -87 c-1 -39 -9 -101 -18 -137 -22 -81 -22 -169 -1 -211 13
-24 15 -45 11 -83 -6 -45 -4 -55 14 -71 11 -10 20 -26 20 -37 0 -10 4 -18 9
-18 5 0 7 -9 4 -20 -7 -27 -23 -15 -23 17 0 16 -12 37 -34 57 -26 24 -35 42
-39 76 -6 45 -14 95 -23 139 -9 43 -24 8 -30 -72 -6 -71 -8 -76 -23 -62 -16
13 -18 9 -30 -46 -11 -47 -11 -66 -2 -86 16 -35 3 -45 -50 -41 -40 3 -44 5
-41 28 1 13 -4 41 -13 62 -10 27 -12 45 -5 63 6 17 6 33 -2 50 -9 19 -7 36 6
80 14 43 17 83 15 187 -2 97 1 143 12 171 19 50 29 47 29 -9 0 -27 6 -51 15
-60 11 -11 15 -38 15 -102 0 -47 7 -113 14 -146 8 -34 16 -70 18 -81 2 -12 15
10 32 58 28 75 29 82 24 212 -5 122 -4 135 12 140 10 3 26 15 36 26 16 18 19
18 33 4 11 -11 15 -35 15 -88z m-477 -6 c3 -44 2 -71 -5 -71 -13 0 -22 35 -22
91 0 42 7 65 17 55 3 -2 7 -36 10 -75z m93 57 c18 -13 30 -31 30 -45 0 -13 5
-23 10 -23 6 0 10 11 10 24 0 30 16 42 35 26 11 -9 13 -39 11 -139 -4 -163
-20 -201 -29 -69 -6 98 -13 128 -28 128 -14 0 -10 -147 5 -203 20 -71 29 -167
16 -167 -5 0 -10 7 -10 16 0 23 -20 6 -21 -19 -1 -17 -2 -18 -6 -4 -6 22 -23
12 -23 -13 0 -10 -5 -22 -11 -26 -8 -4 -9 1 -5 17 l7 24 -17 -22 c-9 -13 -21
-23 -26 -23 -6 0 -5 6 1 14 16 19 12 219 -5 306 -8 36 -14 100 -14 143 0 71 2
77 20 77 12 0 34 -10 50 -22z m416 -107 c-8 -138 -19 -204 -34 -209 -14 -4
-10 57 9 143 5 22 9 76 9 120 0 62 3 76 11 61 7 -12 9 -53 5 -115z m144 105
c0 -8 6 -16 13 -19 6 -2 8 -8 4 -13 -4 -4 -16 -3 -25 2 -23 15 -28 44 -8 44 9
0 16 -6 16 -14z m-300 -63 c0 -15 5 -41 12 -59 9 -26 9 -45 -2 -89 -9 -36 -17
-52 -23 -46 -13 13 -25 198 -14 217 12 21 27 8 27 -23z m-535 -70 c5 -56 4
-83 -4 -83 -15 0 -27 83 -23 155 4 55 20 11 27 -72z m703 -258 c14 -53 16
-135 3 -135 -18 0 -32 29 -25 54 4 17 2 26 -6 26 -8 0 -10 9 -6 28 4 15 7 37
7 50 -1 37 14 25 27 -23z m-499 -82 c1 -23 -5 -36 -20 -44 -31 -16 -43 2 -24
37 8 16 15 47 15 70 0 92 27 34 29 -63z m372 -66 c-8 -8 -11 10 -10 74 l2 84
10 -73 c7 -53 7 -76 -2 -85z m179 63 c0 -13 -1 -13 -10 0 -5 8 -10 22 -10 30
0 13 1 13 10 0 5 -8 10 -22 10 -30z m-430 -53 c0 -12 7 -33 16 -45 12 -17 12
-22 2 -23 -7 0 -2 -5 11 -10 l25 -10 -28 -14 c-16 -8 -30 -15 -32 -15 -2 0 -4
18 -4 41 0 45 -16 49 -36 10 -7 -13 -17 -28 -24 -34 -9 -9 -11 -4 -5 23 12 66
15 71 36 65 15 -5 19 -2 19 14 0 12 5 21 10 21 6 0 10 -10 10 -23z m207 -19
c-3 -7 -5 -2 -5 12 0 14 2 19 5 13 2 -7 2 -19 0 -25z m223 22 c0 -5 -2 -10 -4
-10 -3 0 -8 5 -11 10 -3 6 -1 10 4 10 6 0 11 -4 11 -10z m-510 -27 c-5 -16
-11 -45 -15 -67 -4 -26 -10 -35 -17 -28 -6 6 -5 16 3 31 11 16 11 23 1 33 -9
9 -7 17 10 35 27 29 29 29 18 -4z m-54 1 c-3 -9 -6 -20 -6 -25 0 -5 -4 -9 -10
-9 -11 0 -14 33 -3 43 12 13 25 7 19 -9z m815 -27 c4 -16 16 -35 26 -43 16
-12 16 -13 1 -14 -9 0 -26 12 -37 28 -20 26 -20 26 -21 4 0 -20 -3 -21 -20
-12 -12 6 -20 21 -20 37 0 22 2 24 15 13 9 -7 18 -10 22 -6 3 3 1 6 -5 6 -7 0
-12 5 -12 11 0 6 10 9 22 7 14 -2 24 -13 29 -31z m-882 -19 c-20 -28 -24 -30
-27 -14 -3 12 5 26 19 37 33 24 35 16 8 -23z m506 33 c3 -5 0 -13 -7 -17 -8
-5 -4 -10 10 -15 12 -5 21 -16 21 -26 -1 -17 -2 -17 -6 0 -6 23 -23 12 -24
-16 0 -18 -3 -16 -15 11 -16 35 -29 43 -21 12 3 -11 1 -20 -4 -20 -5 0 -9 5
-9 10 0 17 -18 11 -23 -7 -2 -10 -4 -1 -3 19 0 36 19 58 31 38 9 -15 25 -12
25 5 0 17 16 20 25 6z m117 -42 c6 -4 7 -12 3 -19 -8 -13 -35 32 -34 59 0 10
4 7 10 -9 6 -13 15 -27 21 -31z m-861 4 c-9 -16 -10 -14 -11 12 0 21 3 26 11
18 8 -8 8 -16 0 -30z m54 20 c-4 -10 -8 -24 -8 -30 -1 -18 -16 -16 -23 2 -7
16 12 45 28 45 6 0 7 -8 3 -17z m246 -46 c-8 -8 -11 -7 -11 4 0 20 13 34 18
19 3 -7 -1 -17 -7 -23z m-21 8 c0 -8 -4 -15 -9 -15 -5 0 -11 7 -15 15 -3 9 0
15 9 15 8 0 15 -7 15 -15z m640 -17 c0 -5 -4 -8 -10 -8 -5 0 -10 10 -10 23 0
18 2 19 10 7 5 -8 10 -18 10 -22z m-935 -9 c-4 -5 -13 -9 -22 -9 -13 0 -13 3
-3 15 13 15 35 11 25 -6z m1135 -20 c0 -5 -7 -9 -15 -9 -9 0 -15 9 -15 21 0
18 2 19 15 9 8 -7 15 -16 15 -21z m-1090 1 c0 -11 -5 -20 -12 -20 -6 0 -8 3
-5 7 4 3 2 12 -4 20 -9 10 -8 13 5 13 9 0 16 -8 16 -20z m-50 -25 c0 -8 -4
-15 -10 -15 -5 0 -7 7 -4 15 4 8 8 15 10 15 2 0 4 -7 4 -15z m280 -14 c-12
-24 -30 -28 -30 -6 0 13 31 38 38 30 2 -2 -1 -13 -8 -24z m53 12 c-11 -31 -15
-35 -24 -22 -4 8 -3 19 3 26 15 19 28 16 21 -4z m45 -3 c-7 -11 -16 -20 -20
-20 -13 0 -9 28 5 33 23 10 27 7 15 -13z m296 8 c25 -8 61 -32 93 -63 89 -87
105 -203 42 -313 -84 -148 -270 -172 -386 -50 -121 126 -88 330 66 410 59 31
117 36 185 16z m145 -14 c3 -16 1 -17 -13 -5 -19 16 -21 34 -3 29 6 -3 14 -13
16 -24z m47 -11 c-4 -4 -11 -1 -16 7 -16 25 -11 35 7 17 9 -9 13 -20 9 -24z
m44 22 c7 -9 10 -18 7 -22 -8 -7 -37 15 -37 28 0 14 16 11 30 -6z m-677 -20
c-5 -16 -33 -21 -33 -7 0 13 22 32 31 26 5 -2 6 -11 2 -19z m206 15 c6 8 13
11 17 7 13 -13 -16 -34 -41 -29 -21 4 -23 7 -14 19 10 11 14 11 21 1 6 -10 10
-10 17 2z m341 -6 c0 -14 -3 -14 -15 -4 -8 7 -15 14 -15 16 0 2 7 4 15 4 8 0
15 -7 15 -16z m186 -11 c-7 -7 -26 7 -26 19 0 6 6 6 15 -2 9 -7 13 -15 11 -17z
m34 12 c0 -8 -2 -15 -4 -15 -2 0 -6 7 -10 15 -3 8 -1 15 4 15 6 0 10 -7 10
-15z m44 -1 c9 -24 7 -28 -9 -14 -17 14 -20 30 -6 30 5 0 12 -7 15 -16z m44
-2 c6 -18 -15 -14 -22 4 -4 10 -1 14 6 12 6 -2 14 -10 16 -16z m-944 -7 c-4
-8 -12 -15 -20 -15 -17 0 -18 17 -1 23 22 9 27 7 21 -8z m36 -6 c-7 -11 -14
-18 -17 -15 -8 8 5 36 17 36 7 0 7 -6 0 -21z m950 0 c0 -6 -4 -7 -10 -4 -5 3
-10 11 -10 16 0 6 5 7 10 4 6 -3 10 -11 10 -16z m-1060 7 c0 -3 -4 -8 -10 -11
-5 -3 -10 -1 -10 4 0 6 5 11 10 11 6 0 10 -2 10 -4z m30 -5 c0 -6 -4 -13 -10
-16 -5 -3 -10 1 -10 9 0 9 5 16 10 16 6 0 10 -4 10 -9z m-70 -11 c0 -5 -4 -10
-10 -10 -5 0 -10 5 -10 10 0 6 5 10 10 10 6 0 10 -4 10 -10z m375 -20 c-3 -5
-10 -10 -16 -10 -5 0 -9 5 -9 10 0 6 7 10 16 10 8 0 12 -4 9 -10z m454 -4 c8
-10 10 -30 5 -62 l-7 -47 -18 38 c-10 20 -23 43 -28 49 -7 9 -7 16 1 24 16 16
33 15 47 -2z m-776 -18 c17 -15 31 -45 43 -89 18 -69 44 -100 68 -80 8 7 24 7
48 -1 57 -17 68 -8 61 52 -5 40 -2 54 12 70 14 15 21 17 26 8 4 -7 5 -16 2
-21 -3 -5 -6 -28 -7 -52 -2 -48 -17 -72 -49 -77 -43 -6 -34 -77 13 -105 17 -9
30 -22 30 -27 0 -5 10 -20 21 -32 21 -22 20 -62 0 -49 -6 3 -8 12 -5 19 7 19
-71 86 -101 86 -14 0 -37 8 -51 17 -21 13 -27 14 -34 3 -6 -10 -14 -8 -38 9
-37 26 -42 26 -42 2 0 -22 -17 -37 -45 -43 -26 -4 -32 -44 -9 -69 14 -15 14
-19 3 -19 -44 0 -53 68 -13 95 21 13 23 19 13 31 -8 10 -9 21 -2 37 6 12 8 48
5 79 -3 45 -7 55 -20 51 -13 -5 -14 2 -7 53 4 32 9 62 12 67 8 14 40 7 66 -15z
m257 10 c0 -7 -14 -27 -32 -45 -26 -27 -31 -40 -30 -78 0 -42 -9 -57 -22 -36
-8 13 -54 19 -64 9 -5 -5 -16 0 -26 11 -14 15 -15 24 -7 40 15 26 14 28 -9 34
-15 4 -19 13 -18 34 1 15 3 31 5 36 7 13 203 8 203 -5z m557 -10 c-3 -8 -6 -5
-6 6 -1 11 2 17 5 13 3 -3 4 -12 1 -19z m151 10 c5 -7 12 -22 15 -33 4 -17 5
-16 6 4 l1 25 21 -22 c42 -46 32 -122 -15 -122 -17 0 -22 15 -7 24 12 8 2 46
-12 46 -6 0 -18 7 -27 15 -14 13 -20 11 -53 -19 -58 -52 -48 -76 13 -31 19 14
38 25 42 25 12 0 10 -34 -3 -47 -7 -7 -8 -19 -4 -30 9 -21 7 -56 -5 -63 -14
-10 -31 -50 -25 -60 4 -6 3 -35 0 -65 -8 -60 -30 -75 -37 -26 -3 21 -1 28 9
24 7 -3 13 -2 13 1 0 16 -31 66 -41 66 -6 0 -8 9 -4 20 5 15 3 18 -9 14 -9 -3
-16 -2 -16 4 0 6 14 15 30 21 17 5 30 17 30 25 0 20 -5 20 -37 -1 -21 -14 -25
-14 -21 -3 3 8 1 23 -4 34 -7 13 -6 21 3 27 10 6 8 12 -9 27 -37 32 -24 92 20
92 9 0 21 8 27 17 8 16 10 14 16 -10 7 -28 35 -38 35 -12 0 8 -4 15 -10 15 -5
0 -10 7 -10 15 0 19 53 21 68 3z m180 -48 c21 -68 25 -179 9 -240 l-14 -55 -6
145 c-2 80 -8 155 -12 168 -4 12 -3 22 1 22 5 0 15 -18 22 -40z m-1257 13 c13
-16 12 -17 -3 -4 -10 7 -18 15 -18 17 0 8 8 3 21 -13z m1199 -24 c0 -28 18
-42 21 -16 1 6 5 -13 9 -43 10 -72 11 -231 1 -206 -5 14 -10 16 -15 8 -4 -7
-5 -16 -1 -21 3 -5 1 -12 -5 -16 -6 -4 -10 7 -11 27 0 27 -2 30 -9 13 -8 -19
-9 -19 -9 2 -1 12 4 34 9 49 7 17 7 31 1 38 -9 11 -31 124 -30 156 0 8 6 2 14
-15 l15 -30 -4 47 c-2 26 0 45 5 42 5 -3 9 -18 9 -35z m-1230 -58 c0 -37 -16
-12 -23 34 -6 39 -6 39 8 15 8 -14 14 -36 15 -49z m1340 -58 c0 -42 -2 -74 -4
-72 -2 2 -6 39 -10 82 -5 54 -4 77 4 72 5 -3 10 -40 10 -82z m-1286 25 c20
-28 21 -64 2 -75 -32 -19 -50 -91 -20 -79 14 5 15 4 5 -8 -6 -8 -11 -18 -10
-22 1 -5 -2 -24 -6 -42 -5 -23 -11 -30 -18 -23 -7 7 -7 19 2 37 10 22 9 30 -4
44 -11 12 -15 37 -13 96 0 43 3 63 5 44 3 -19 8 -39 13 -44 6 -6 7 11 3 42 -5
43 -3 52 10 52 9 0 23 -10 31 -22z m885 -85 c1 -45 10 -63 37 -74 17 -6 24
-16 24 -34 0 -14 -4 -25 -8 -25 -5 0 -14 -11 -20 -25 -12 -26 -32 -34 -32 -12
0 6 9 23 20 37 21 26 25 40 12 40 -4 0 -19 -20 -34 -44 -24 -40 -30 -44 -67
-44 -51 -1 -52 11 -6 65 19 23 35 48 35 56 0 9 5 19 10 22 6 3 10 30 11 58 0
38 3 47 9 32 5 -11 9 -34 9 -52z m235 52 c32 -32 32 -109 0 -136 -10 -8 -13
-21 -9 -38 3 -16 2 -21 -3 -13 -6 9 -12 6 -20 -13 -16 -35 -35 -33 -20 3 7 15
18 36 25 47 16 25 17 38 1 29 -7 -4 -4 2 6 14 23 26 16 28 -25 7 -27 -14 -30
-14 -36 0 -3 9 -1 21 6 28 6 6 11 23 11 39 0 15 8 31 18 37 23 14 28 13 46 -4z
m-774 -66 c0 -20 14 -53 41 -91 22 -33 38 -62 35 -66 -3 -3 -7 -3 -9 -1 -1 2
-16 24 -32 49 -16 25 -38 54 -50 65 -12 11 -25 32 -29 48 -6 24 -4 27 19 27
21 0 25 -5 25 -31z m-425 -9 c3 -5 1 -10 -4 -10 -6 0 -11 5 -11 10 0 6 2 10 4
10 3 0 8 -4 11 -10z m85 -10 c0 -5 -5 -10 -11 -10 -5 0 -7 5 -4 10 3 6 8 10
11 10 2 0 4 -4 4 -10z m1034 -55 c-7 -18 12 -20 20 -2 3 6 3 -1 -1 -18 -8 -43
-24 -61 -35 -40 -11 18 -1 75 12 75 5 0 7 -7 4 -15z m-854 -7 c0 -5 12 -8 26
-8 50 0 64 -16 64 -72 0 -44 -2 -49 -15 -38 -11 9 -15 9 -15 1 0 -7 -5 -9 -10
-6 -6 4 -8 11 -5 16 11 16 -7 9 -21 -8 -13 -17 -13 -17 -14 0 0 21 -20 23 -20
2 0 -8 -5 -15 -11 -15 -6 0 -9 7 -5 15 7 18 -15 20 -32 3 -9 -9 -12 -9 -12 3
0 8 -13 20 -30 27 -16 8 -30 20 -30 28 0 8 -8 14 -17 14 -14 0 -11 6 12 25 24
19 40 24 82 22 29 -1 53 -5 53 -9z m966 -45 c-3 -35 -22 -62 -20 -28 3 55 5
65 13 65 5 0 8 -17 7 -37z m-828 -29 c-14 -14 -15 -14 -10 11 3 19 8 23 15 16
8 -8 7 -16 -5 -27z m75 -44 c-5 -20 -15 -25 -26 -13 -8 7 11 33 23 33 5 0 6
-9 3 -20z m47 0 c-6 -11 -15 -20 -20 -20 -16 0 -11 18 8 29 24 14 24 14 12 -9z
m-100 -6 c0 -8 -4 -12 -10 -9 -5 3 -10 10 -10 16 0 5 5 9 10 9 6 0 10 -7 10
-16z m134 1 c-4 -8 -10 -15 -15 -15 -4 0 -6 7 -3 15 4 8 10 15 15 15 4 0 6 -7
3 -15z m234 -4 c3 -8 -1 -12 -9 -9 -7 2 -15 10 -17 17 -3 8 1 12 9 9 7 -2 15
-10 17 -17z m67 9 c3 -5 1 -10 -4 -10 -6 0 -11 5 -11 10 0 6 2 10 4 10 3 0 8
-4 11 -10z m45 -5 c0 -8 -4 -15 -10 -15 -5 0 -10 7 -10 15 0 8 5 15 10 15 6 0
10 -7 10 -15z m35 5 c3 -5 2 -10 -4 -10 -5 0 -13 5 -16 10 -3 6 -2 10 4 10 5
0 13 -4 16 -10z m35 0 c0 -5 -2 -10 -4 -10 -3 0 -8 5 -11 10 -3 6 -1 10 4 10
6 0 11 -4 11 -10z m40 0 c0 -5 -2 -10 -4 -10 -3 0 -8 5 -11 10 -3 6 -1 10 4
10 6 0 11 -4 11 -10z m-420 -10 c0 -5 -4 -10 -10 -10 -5 0 -10 5 -10 10 0 6 5
10 10 10 6 0 10 -4 10 -10z m72 -12 c-7 -7 -12 -8 -12 -2 0 14 12 26 19 19 2
-3 -1 -11 -7 -17z m88 12 c0 -5 -2 -10 -4 -10 -3 0 -8 5 -11 10 -3 6 -1 10 4
10 6 0 11 -4 11 -10z m70 0 c0 -5 -2 -10 -4 -10 -3 0 -8 5 -11 10 -3 6 -1 10
4 10 6 0 11 -4 11 -10z m-100 -10 c0 -5 -4 -10 -9 -10 -6 0 -13 5 -16 10 -3 6
1 10 9 10 9 0 16 -4 16 -10z m198 -60 c3 -9 -2 -11 -21 -6 -14 3 -28 2 -32 -3
-3 -6 -17 -6 -35 -1 -18 5 -32 5 -36 -1 -3 -6 -11 -6 -17 -1 -14 10 -97 10
-114 -1 -6 -4 -14 -3 -18 3 -4 6 -12 7 -18 3 -18 -11 -66 -12 -73 -1 -3 5 -12
4 -21 -3 -12 -10 -16 -10 -24 2 -8 12 -10 12 -18 0 -10 -15 -31 -7 -31 12 0
18 452 15 458 -3z m42 11 c0 -6 -4 -13 -10 -16 -5 -3 -10 1 -10 9 0 9 5 16 10
16 6 0 10 -4 10 -9z m48 -10 c3 -8 -1 -12 -9 -9 -7 2 -15 10 -17 17 -3 8 1 12
9 9 7 -2 15 -10 17 -17z m52 9 c0 -5 -5 -10 -11 -10 -5 0 -7 5 -4 10 3 6 8 10
11 10 2 0 4 -4 4 -10z m60 6 c0 -3 -4 -8 -10 -11 -5 -3 -10 -1 -10 4 0 6 5 11
10 11 6 0 10 -2 10 -4z m-736 -21 c3 -8 1 -15 -4 -15 -6 0 -10 7 -10 15 0 8 2
15 4 15 2 0 6 -7 10 -15z m50 -16 c-8 -13 -24 -1 -24 18 0 13 3 13 15 3 8 -7
12 -16 9 -21z m-94 11 c0 -5 -2 -10 -4 -10 -3 0 -8 5 -11 10 -3 6 -1 10 4 10
6 0 11 -4 11 -10z"/>
<path d="M604 2709 c-3 -6 -1 -16 5 -22 8 -8 11 -5 11 11 0 24 -5 28 -16 11z"/>
<path d="M1531 2591 c-12 -12 -21 -28 -21 -38 0 -15 2 -15 19 1 26 23 49 11
27 -13 -9 -10 -13 -21 -9 -24 14 -14 22 -6 29 29 5 26 2 40 -9 51 -13 14 -17
13 -36 -6z"/>
<path d="M1510 2510 c0 -5 4 -10 10 -10 5 0 12 -11 16 -25 4 -14 11 -24 17
-22 20 6 19 25 -2 46 -22 22 -41 27 -41 11z"/>
<path d="M94 2578 c-9 -14 -7 -65 2 -80 4 -6 10 -6 16 0 6 6 5 17 -3 30 -18
28 -4 39 21 17 16 -15 20 -15 20 -3 0 14 -30 48 -43 48 -3 0 -9 -5 -13 -12z"/>
<path d="M106 2478 c-12 -16 -13 -25 -5 -33 8 -7 13 -6 17 4 2 7 13 22 23 32
19 19 19 19 0 19 -11 0 -27 -10 -35 -22z"/>
<path d="M797 916 c-92 -34 -147 -117 -147 -221 0 -196 208 -303 354 -183 57
47 80 100 80 183 0 73 -15 116 -58 163 -52 58 -158 84 -229 58z m97 -63 c-10
-87 -23 -99 -24 -22 0 36 3 69 7 72 17 18 23 2 17 -50z m-65 -26 c10 -37 15
-67 12 -67 -12 0 -63 118 -56 129 14 23 28 4 44 -62z m29 33 c2 -18 -1 -37 -7
-43 -8 -8 -11 -6 -11 5 0 8 -3 30 -7 48 -5 25 -3 32 8 28 8 -2 15 -19 17 -38z
m92 20 c0 -4 -12 -28 -26 -51 l-26 -44 7 40 c10 63 15 74 31 68 7 -3 14 -9 14
-13z m-160 -62 l31 -63 -45 49 c-35 38 -43 53 -34 63 6 7 12 13 14 13 2 0 17
-28 34 -62z m204 43 c3 -5 -10 -25 -30 -46 -46 -50 -34 -59 15 -11 31 30 40
34 44 22 5 -11 -6 -24 -34 -42 -60 -38 -68 -39 -65 -12 8 59 53 117 70 89z
m-225 -73 c24 -27 38 -48 32 -48 -7 0 -9 -5 -5 -12 5 -8 2 -9 -12 -4 -10 4
-38 12 -61 19 -24 6 -43 17 -43 23 0 16 33 75 40 71 3 -1 25 -23 49 -49z m284
-10 c2 -8 -15 -20 -42 -30 -69 -27 -82 -22 -31 12 49 33 66 37 73 18z m17 -53
c0 -9 -18 -14 -64 -17 -74 -4 -75 1 -3 23 55 17 67 16 67 -6z m-318 -6 c27 -6
48 -13 48 -15 0 -2 -31 -4 -69 -4 -65 0 -69 1 -64 21 4 14 11 18 22 14 9 -3
37 -11 63 -16z m130 -24 c0 -5 -5 -11 -11 -13 -6 -2 -11 4 -11 13 0 9 5 15 11
13 6 -2 11 -8 11 -13z m-87 -14 c-10 -8 -102 -41 -117 -41 -4 0 -8 9 -8 19 0
17 8 21 53 24 28 2 59 4 67 5 8 1 10 -1 5 -7z m275 -11 c0 -17 -5 -19 -27 -14
-68 15 -103 25 -103 29 0 3 29 5 65 5 59 0 65 -2 65 -20z m-270 -14 c0 -9
-103 -65 -111 -60 -19 11 -7 23 44 43 52 20 67 24 67 17z m243 -12 c9 -3 17
-14 17 -25 0 -25 -2 -24 -58 12 l-47 30 35 -6 c19 -4 43 -9 53 -11z m-235 -12
c-7 -11 -28 -36 -46 -57 -31 -35 -35 -36 -50 -22 -9 9 -14 18 -11 21 6 5 113
75 117 75 2 1 -3 -7 -10 -17z m182 -13 c27 -17 50 -35 50 -39 0 -25 -25 -16
-67 24 -56 54 -52 57 17 15z m-124 -72 l8 -52 11 70 11 70 37 -57 c41 -63 46
-81 20 -76 -11 2 -23 21 -32 53 -9 30 -16 43 -19 32 -2 -10 1 -32 7 -49 19
-53 17 -55 -55 -53 -36 2 -68 5 -71 9 -3 3 7 35 23 70 24 54 31 62 41 50 6 -9
15 -39 19 -67z m134 -11 c0 -18 -1 -18 -18 -3 -10 9 -29 36 -41 59 l-24 43 42
-40 c22 -21 41 -48 41 -59z m-198 47 c-10 -15 -23 -38 -26 -50 -8 -24 -21 -30
-31 -14 -3 5 12 29 32 54 42 48 57 55 25 10z"/>
<path d="M700 795 c0 -8 82 -57 87 -52 6 7 -61 57 -75 57 -7 0 -12 -2 -12 -5z"/>
<path d="M832 571 c-14 -41 -15 -61 -2 -61 10 0 24 62 18 82 -3 7 -10 -3 -16
-21z"/>
<path d="M291 794 c0 -11 3 -14 6 -6 3 7 2 16 -1 19 -3 4 -6 -2 -5 -13z"/>
<path d="M330 792 c0 -21 30 -94 45 -109 21 -21 32 -8 13 14 -9 10 -13 24 -11
30 3 7 -2 16 -11 19 -9 3 -16 14 -16 24 0 11 -4 22 -10 25 -5 3 -10 2 -10 -3z"/>
<path d="M93 203 c-24 -9 -13 -43 20 -63 31 -19 31 -20 10 -26 -29 -8 -29 -15
0 -42 27 -26 47 -28 47 -7 0 21 39 19 46 -3 23 -72 39 -62 36 23 l-4 75 31 0
31 0 0 -63 c0 -58 11 -87 32 -87 4 0 8 34 8 75 l0 75 56 0 c47 0 55 -3 52 -17
-2 -13 -11 -17 -31 -15 -21 3 -27 -1 -27 -15 0 -24 84 -107 101 -101 9 3 4 11
-14 22 -33 22 -33 30 -6 57 14 14 19 29 16 45 -4 23 -3 24 64 24 39 0 69 -4
69 -10 0 -5 -18 -10 -39 -10 -73 0 -87 -44 -33 -102 31 -33 40 -30 17 6 -23
34 -13 56 25 56 27 0 30 -3 30 -33 0 -31 14 -57 32 -57 4 0 8 33 8 74 0 56 4
75 15 80 8 3 15 12 15 21 0 13 -34 15 -266 15 -208 0 -265 -3 -262 -12 3 -7
14 -17 27 -23 28 -13 25 -50 -4 -50 -14 0 -21 8 -23 27 -2 15 -15 37 -29 48
-27 21 -30 22 -50 13z m47 -39 c0 -9 -5 -14 -12 -12 -18 6 -21 28 -4 28 9 0
16 -7 16 -16z"/>
<path d="M810 180 c0 -13 7 -20 19 -20 28 0 37 -20 12 -27 -12 -3 -21 -12 -21
-20 0 -21 25 -65 49 -87 25 -23 28 -10 4 16 -16 18 -10 51 10 49 4 -1 18 -1
32 -1 21 0 25 -5 25 -29 0 -16 7 -34 15 -41 13 -11 15 -3 15 64 l0 76 61 0
c52 0 60 -2 57 -17 -2 -12 -13 -18 -32 -18 -45 0 -42 -22 8 -71 50 -48 87 -62
44 -16 l-27 27 25 28 c16 19 23 36 19 48 -6 17 -1 19 49 19 46 0 56 -3 56 -17
0 -13 -3 -14 -12 -5 -26 26 -70 -2 -61 -38 6 -24 40 -50 57 -44 6 2 16 -6 21
-18 18 -38 35 -34 35 10 0 23 6 45 15 52 21 18 32 3 16 -22 -11 -17 -10 -23 3
-37 15 -14 18 -14 26 -1 23 36 -3 100 -41 100 -10 0 -19 5 -19 10 0 6 18 10
40 10 l40 0 0 -58 c0 -46 4 -63 20 -77 20 -18 20 -17 20 58 l0 77 61 0 c52 0
60 -2 57 -17 -2 -12 -13 -18 -32 -18 -45 0 -42 -22 8 -71 51 -48 87 -62 43
-16 -27 29 -27 29 -7 47 11 10 20 31 20 46 0 21 5 28 22 31 13 2 24 11 26 21
3 16 -21 17 -387 17 -384 0 -391 0 -391 -20z m128 -37 c-2 -10 -13 -19 -26
-21 -17 -3 -22 2 -22 17 0 16 6 21 26 21 19 0 25 -5 22 -17z m278 -48 c-25
-19 -36 -19 -36 0 0 10 10 15 28 15 26 -1 26 -1 8 -15z"/>
</g>
</svg>
