<?xml version="1.0" standalone="no"?>
<!DOCTYPE svg PUBLIC "-//W3C//DTD SVG 20010904//EN"
 "http://www.w3.org/TR/2001/REC-SVG-20010904/DTD/svg10.dtd">
<svg version="1.0" xmlns="http://www.w3.org/2000/svg"
 width="371.000000pt" height="136.000000pt" viewBox="0 0 371.000000 136.000000"
 preserveAspectRatio="xMidYMid meet">

<g transform="translate(0.000000,136.000000) scale(0.100000,-0.100000)"
fill="#000000" stroke="none">
<path d="M3548 1153 c-10 -2 -18 -10 -18 -17 0 -9 -14 -11 -52 -5 -29 3 -55 5
-57 3 -2 -2 1 -4 7 -4 7 0 12 -7 12 -15 0 -17 16 -20 25 -5 6 10 55 14 55 5 0
-3 -7 -16 -16 -30 l-15 -23 -275 -2 c-163 0 -274 3 -274 9 0 5 -18 18 -41 29
-45 23 -34 32 26 21 46 -9 474 -13 483 -4 3 3 -61 5 -141 5 -103 0 -147 3
-147 11 0 8 20 10 68 6 37 -4 92 -3 122 2 43 7 19 8 -105 8 -88 0 -149 -2
-135 -4 14 -3 30 -9 35 -15 13 -13 -38 -5 -82 13 -26 11 -36 11 -57 0 -14 -8
-36 -11 -50 -7 -14 3 -45 -1 -68 -9 -51 -17 -61 -18 -53 -5 4 6 -19 10 -62 10
-48 0 -63 3 -53 10 11 7 -3 10 -45 10 -38 0 -55 -3 -46 -9 9 -6 -2 -10 -35
-13 -57 -5 -66 -2 -33 11 18 6 7 8 -41 6 -36 -2 -568 -4 -1183 -4 l-1117 -1 2
-163 3 -162 865 4 c476 2 867 8 868 12 2 5 13 9 25 8 21 0 21 -1 2 -9 -13 -5
23 -9 98 -9 72 -1 117 3 117 9 0 6 18 10 40 10 22 0 40 -4 40 -8 0 -5 72 -9
160 -9 88 0 160 3 160 6 0 9 153 12 160 3 3 -4 151 -4 330 -1 179 4 369 4 423
1 l97 -5 0 166 c0 92 -1 166 -2 166 -2 -1 -11 -3 -20 -6z m9 -60 c1 -27 -1
-38 -4 -25 -5 23 -23 31 -23 10 0 -6 -3 -8 -6 -5 -8 7 15 67 25 67 4 0 8 -21
8 -47z m-1530 31 c-3 -3 -12 -4 -19 -1 -8 3 -5 6 6 6 11 1 17 -2 13 -5z m991
-1 c-10 -2 -28 -2 -40 0 -13 2 -5 4 17 4 22 1 32 -1 23 -4z m-241 -17 c4 -5 1
-12 -5 -14 -7 -2 -12 -9 -12 -17 0 -16 -45 -25 -131 -25 -55 0 -69 -3 -69 -15
0 -16 -17 -17 -65 -5 -17 4 -22 8 -12 9 11 0 26 9 35 19 11 11 14 12 8 2 -5
-8 3 -2 18 13 26 28 28 29 101 22 41 -4 75 -3 75 1 0 5 -35 10 -77 12 -42 1
-79 5 -82 8 -3 3 43 4 102 3 60 -1 111 -7 114 -13z m-484 -8 c59 -6 107 -15
107 -20 0 -4 19 -8 42 -8 74 0 33 -10 -63 -16 -125 -7 -539 6 -539 17 0 5 51
6 114 3 107 -7 115 -6 137 15 27 25 50 26 202 9z m-620 -5 c-7 -2 -19 -2 -25
0 -7 3 -2 5 12 5 14 0 19 -2 13 -5z m-175 -21 c3 -9 -2 -13 -14 -10 -9 1 -19
9 -22 16 -3 9 2 13 14 10 9 -1 19 -9 22 -16z m1375 8 c12 -1 -62 -30 -75 -30
-5 0 -8 7 -8 16 0 8 4 13 8 10 4 -2 14 -1 22 5 8 5 21 7 28 4 8 -3 19 -5 25
-5z m-1526 -16 c-3 -3 -12 -4 -19 -1 -8 3 -5 6 6 6 11 1 17 -2 13 -5z m43 -4
c8 -5 11 -10 5 -10 -5 0 -17 5 -25 10 -8 5 -10 10 -5 10 6 0 17 -5 25 -10z
m283 3 c-7 -2 -19 -2 -25 0 -7 3 -2 5 12 5 14 0 19 -2 13 -5z m1242 -2 c3 -5
1 -12 -5 -16 -5 -3 -10 1 -10 9 0 18 6 21 15 7z m-725 -50 c0 -3 -26 -4 -57
-1 l-58 4 45 6 c46 6 70 3 70 -9z m460 -12 c0 -14 -7 -19 -25 -19 -18 0 -25 5
-25 19 0 11 8 21 18 24 24 5 32 -1 32 -24z m277 -7 c-9 -10 -17 -24 -17 -30 0
-15 -17 -16 -25 -2 -3 6 -1 10 4 10 6 0 11 9 11 21 0 11 5 17 10 14 6 -3 10 2
10 11 0 14 3 15 12 6 9 -9 8 -16 -5 -30z m133 27 c0 -7 -11 -8 -30 -4 -26 6
-31 3 -45 -27 -14 -31 -15 -32 -11 -5 2 15 -1 27 -6 27 -5 0 -6 5 -3 10 8 14
95 13 95 -1z m40 -4 c0 -8 -4 -15 -8 -15 -5 0 -9 7 -9 15 0 8 4 15 9 15 4 0 8
-7 8 -15z m105 -11 c0 -22 -40 -24 -72 -3 -35 22 -27 30 25 26 37 -4 47 -8 47
-23z m62 6 c-1 -18 -24 -36 -34 -26 -7 6 16 46 27 46 5 0 8 -9 7 -20z m71 -8
c3 -17 -2 -22 -17 -22 -14 0 -21 6 -21 18 0 38 33 41 38 4z m54 -18 c-3 -24
-7 -32 -12 -23 -4 8 -6 25 -5 39 4 33 4 32 13 26 4 -3 6 -21 4 -42z m-1752 26
c-18 -11 -73 -14 -67 -2 3 4 22 8 44 9 28 2 34 0 23 -7z m253 -11 c3 -13 1
-19 -6 -16 -15 5 -22 37 -9 37 5 0 12 -9 15 -21z m87 11 c0 -5 -4 -10 -9 -10
-5 0 -12 -10 -14 -22 -3 -17 -5 -14 -6 10 -1 22 3 32 14 32 8 0 15 -4 15 -10z
m280 0 c0 -5 -5 -10 -11 -10 -8 0 -8 -4 -1 -12 7 -9 6 -17 -4 -26 -12 -11 -14
-7 -14 23 0 24 4 35 15 35 8 0 15 -4 15 -10z m100 -7 c0 -7 -9 -13 -21 -13
-11 0 -29 -4 -39 -10 -16 -9 -17 -7 -7 14 9 18 20 24 39 24 16 -1 28 -7 28
-15z m50 8 c0 -5 -7 -11 -15 -15 -9 -3 -15 0 -15 9 0 8 7 15 15 15 8 0 15 -4
15 -9z m119 -4 c52 6 58 2 45 -31 -4 -12 -20 -16 -55 -16 -41 0 -47 3 -42 17
5 11 3 14 -6 8 -8 -4 -17 -2 -22 6 -14 23 -10 30 10 20 10 -6 42 -8 70 -4z
m177 -17 c-1 -16 -7 -35 -14 -42 -9 -9 -12 -3 -10 30 1 25 6 42 13 42 8 0 12
-12 11 -30z m124 21 c0 -6 -4 -12 -8 -15 -5 -3 -9 1 -9 9 0 8 4 15 9 15 4 0 8
-4 8 -9z m610 -1 c0 -5 -2 -10 -4 -10 -3 0 -8 5 -11 10 -3 6 -1 10 4 10 6 0
11 -4 11 -10z m-1930 -4 c0 -3 -4 -8 -10 -11 -5 -3 -10 -1 -10 4 0 6 5 11 10
11 6 0 10 -2 10 -4z m598 -46 c2 -14 0 -21 -5 -17 -4 5 -9 13 -9 18 -3 22 -5
23 -12 12 -5 -8 -13 -8 -32 3 -24 13 -24 14 15 11 34 -2 41 -6 43 -27z m90 18
c-2 -6 -14 -15 -26 -19 -17 -6 -22 -5 -22 7 0 8 4 13 9 9 5 -3 12 -1 16 5 9
14 28 13 23 -2z m574 -23 c-6 -34 -12 -32 -12 6 0 16 4 28 9 25 4 -3 6 -17 3
-31z m278 20 c0 -2 -7 -5 -15 -9 -9 -3 -15 0 -15 9 0 9 6 12 15 9 8 -4 15 -7
15 -9z m-1340 -5 c0 -5 -5 -10 -11 -10 -5 0 -7 5 -4 10 3 6 8 10 11 10 2 0 4
-4 4 -10z m740 -5 c11 -13 10 -14 -4 -9 -9 3 -16 10 -16 15 0 13 6 11 20 -6z
m-766 -11 c3 -8 2 -12 -4 -9 -6 3 -10 10 -10 16 0 14 7 11 14 -7z m704 -7 c-8
-16 -12 -17 -19 -6 -13 21 -11 28 10 26 16 -1 18 -5 9 -20z m439 17 c-3 -3
-12 -4 -19 -1 -8 3 -5 6 6 6 11 1 17 -2 13 -5z m293 -4 c0 -5 -7 -7 -15 -4 -8
4 -15 8 -15 10 0 2 7 4 15 4 8 0 15 -4 15 -10z m44 -4 c-3 -8 3 -16 15 -19 12
-3 21 -11 21 -17 0 -9 -3 -10 -13 -1 -10 8 -19 6 -35 -10 -12 -11 -22 -15 -22
-10 0 5 5 13 10 16 6 3 10 17 10 31 0 13 4 24 10 24 5 0 7 -6 4 -14z m79 -7
c4 -16 3 -18 -9 -8 -16 13 -19 29 -5 29 5 0 11 -9 14 -21z m42 1 c10 -11 13
-20 7 -20 -6 0 -16 9 -22 20 -6 11 -9 20 -7 20 2 0 12 -9 22 -20z m-1028 -12
c-3 -8 -6 -5 -6 6 -1 11 2 17 5 13 3 -3 4 -12 1 -19z m52 -21 c1 -5 -3 -5 -9
-2 -5 3 -10 16 -9 28 0 21 1 21 9 2 5 -11 9 -24 9 -28z m671 23 c0 -5 -4 -10
-10 -10 -5 0 -10 5 -10 10 0 6 5 10 10 10 6 0 10 -4 10 -10z m390 -12 c0 -18
-2 -20 -9 -8 -6 8 -7 18 -5 22 9 14 14 9 14 -14z m177 -10 c-3 -7 -5 -2 -5 12
0 14 2 19 5 13 2 -7 2 -19 0 -25z m-1627 12 c0 -5 -2 -10 -4 -10 -3 0 -8 5
-11 10 -3 6 -1 10 4 10 6 0 11 -4 11 -10z m1517 -22 c-3 -8 -6 -5 -6 6 -1 11
2 17 5 13 3 -3 4 -12 1 -19z m-1292 2 c3 -5 1 -10 -4 -10 -6 0 -11 5 -11 10 0
6 2 10 4 10 3 0 8 -4 11 -10z m225 0 c0 -5 -5 -10 -11 -10 -5 0 -7 5 -4 10 3
6 8 10 11 10 2 0 4 -4 4 -10z m374 -25 c3 -9 0 -15 -9 -15 -9 0 -12 6 -9 15 4
8 7 15 9 15 2 0 5 -7 9 -15z"/>
<path d="M3310 1000 c0 -5 5 -10 10 -10 6 0 10 5 10 10 0 6 -4 10 -10 10 -5 0
-10 -4 -10 -10z"/>
<path d="M1207 773 c-11 -10 -8 -53 3 -54 6 -1 15 -2 22 -3 22 -2 19 -24 -4
-28 -18 -2 -23 -9 -23 -33 0 -25 4 -30 25 -30 16 0 28 8 35 23 6 13 18 22 32
22 20 0 23 -5 23 -36 0 -21 4 -33 10 -29 6 3 10 37 10 76 0 62 2 69 20 69 18
0 20 -7 20 -69 0 -95 18 -102 22 -9 l3 73 43 3 43 3 -3 -33 c-2 -28 -7 -33
-25 -30 -13 2 -23 1 -23 -2 0 -3 18 -25 39 -50 40 -46 67 -49 32 -4 -13 16
-17 29 -10 39 5 8 9 29 9 47 l0 32 80 0 c79 0 80 0 80 -25 0 -23 -4 -25 -45
-25 -34 0 -47 -5 -55 -19 -14 -27 -13 -35 11 -65 28 -35 45 -23 18 14 -27 36
-18 50 32 50 38 0 39 -1 39 -34 0 -19 5 -38 10 -41 6 -4 10 22 10 69 0 69 2
76 20 76 11 0 20 5 20 10 0 6 -82 10 -225 10 -143 0 -225 -4 -225 -10 0 -5 9
-10 20 -10 16 0 20 -7 20 -30 0 -25 -4 -30 -25 -30 -20 0 -25 5 -25 26 0 14
-5 34 -10 45 -10 19 -40 26 -53 12z m33 -28 c0 -8 -4 -15 -10 -15 -5 0 -10 7
-10 15 0 8 5 15 10 15 6 0 10 -7 10 -15z m4 -90 c-7 -17 -20 -20 -28 -6 -7 10
3 21 20 21 8 0 11 -6 8 -15z"/>
<path d="M1850 760 c0 -5 11 -10 25 -10 22 0 25 -4 25 -33 0 -40 -8 -51 -27
-36 -10 9 -13 8 -13 0 0 -18 62 -91 72 -85 4 3 -1 17 -12 31 -25 32 -18 43 26
43 31 0 34 -3 34 -29 0 -17 5 -33 10 -36 6 -4 10 22 10 69 l0 76 46 0 c45 0
45 0 42 -32 -2 -27 -7 -33 -25 -31 -31 4 -29 -5 16 -54 42 -46 63 -47 30 -2
-16 22 -18 33 -9 48 5 11 10 31 10 45 0 25 2 26 65 26 51 0 65 -3 65 -15 0
-10 -11 -15 -35 -15 -29 0 -36 -4 -41 -27 -8 -32 14 -52 51 -45 20 3 25 0 25
-17 0 -37 19 -23 22 17 2 30 7 38 27 40 21 3 23 1 19 -27 -2 -17 -1 -31 4 -31
14 0 21 28 14 56 -6 22 -11 25 -36 22 -26 -4 -30 -1 -30 19 0 21 4 23 56 23
l56 0 -4 -70 c-2 -39 1 -69 6 -67 5 2 9 32 10 67 l1 65 43 3 c40 3 42 2 42
-26 0 -35 -9 -45 -26 -31 -7 5 -14 6 -17 2 -7 -11 70 -99 79 -90 4 4 -3 18
-16 32 -18 20 -21 28 -12 37 7 7 12 27 12 45 0 29 3 33 25 33 14 0 25 5 25 10
0 6 -122 10 -345 10 -223 0 -345 -4 -345 -10z m130 -41 c0 -27 -3 -30 -27 -27
-22 2 -29 9 -31 31 -3 24 0 27 27 27 28 0 31 -3 31 -31z m254 -28 c3 -5 -1
-12 -10 -15 -27 -10 -44 -7 -44 9 0 16 45 21 54 6z"/>
<path d="M2963 560 c-3 -11 -10 -20 -17 -20 -7 0 -6 -4 2 -9 16 -10 12 -53 -5
-59 -8 -2 -13 5 -13 16 0 10 -9 27 -19 36 -27 25 -60 12 -68 -25 -5 -27 -9
-29 -48 -29 -40 0 -43 2 -38 23 6 22 6 22 -14 -3 l-21 -24 -7 32 c-3 18 -11
32 -16 32 -6 0 -6 -8 1 -19 16 -31 12 -41 -15 -41 -19 0 -25 5 -25 23 0 13 4
27 9 33 6 5 4 14 -5 22 -15 14 -16 13 -18 -42 -1 -41 -26 -47 -26 -7 0 17 -4
31 -9 31 -4 0 -8 -12 -7 -27 1 -23 -4 -29 -26 -31 -23 -3 -28 1 -28 18 0 11 7
23 15 26 22 9 18 23 -5 17 -14 -4 -20 -14 -20 -34 0 -29 -14 -39 -23 -16 -4 9
-8 9 -15 -1 -11 -16 -54 -12 -59 4 -2 7 3 19 12 27 22 23 18 33 -5 12 -11 -10
-20 -26 -20 -37 0 -17 -19 -27 -21 -10 -5 47 -19 63 -49 55 -13 -4 -20 2 -23
19 -2 12 -5 0 -6 -28 -1 -34 -6 -54 -15 -57 -8 -3 -17 -3 -20 0 -9 10 -7 51 3
55 5 2 3 12 -5 22 -14 20 -14 20 -15 0 -1 -10 0 -31 1 -46 1 -20 -3 -28 -14
-28 -11 0 -16 10 -17 33 l-1 32 -7 -30 c-5 -24 -12 -30 -31 -30 -19 0 -26 6
-31 30 l-7 30 -1 -32 c-2 -49 -25 -41 -49 17 -12 28 -25 50 -29 50 -5 0 -16
-23 -26 -51 l-18 -50 -42 3 c-37 3 -42 6 -45 31 -3 24 -8 27 -38 27 -31 0 -34
-2 -34 -30 0 -39 -15 -39 -29 0 -7 22 -16 30 -33 30 -29 0 -48 -17 -48 -42 0
-10 -4 -18 -10 -18 -5 0 -10 14 -10 31 0 18 -4 28 -10 24 -6 -4 -8 -15 -5 -26
4 -12 1 -21 -10 -25 -22 -9 -29 2 -27 41 1 18 -2 36 -7 39 -6 4 -9 -12 -7 -39
2 -38 0 -45 -16 -45 -13 0 -18 8 -18 30 0 25 -4 30 -22 29 -17 -1 -19 -2 -5
-6 22 -6 22 -22 0 -29 -10 -3 -26 -10 -35 -15 -10 -5 -36 -9 -59 -9 -36 0 -40
2 -37 23 2 17 9 22 31 22 15 -1 27 3 27 7 0 12 -45 9 -58 -4 -7 -7 -12 -20
-12 -31 0 -29 -24 -14 -31 19 l-7 29 -1 -33 c-1 -26 -5 -33 -18 -30 -18 3 -28
48 -11 48 5 0 4 9 -2 20 -9 16 -8 20 7 21 13 0 14 2 4 6 -22 9 -40 -25 -34
-63 4 -27 2 -34 -10 -34 -10 0 -17 11 -20 33 l-4 32 -1 -32 c-2 -26 -6 -33
-22 -33 -17 0 -20 6 -18 40 1 22 -2 43 -5 47 -8 7 -10 -16 -7 -59 2 -40 -29
-38 -37 2 -5 26 -10 30 -39 30 -31 0 -34 -3 -34 -30 0 -29 -1 -30 -47 -29 -46
2 -47 2 -12 8 33 5 36 8 28 29 -15 39 -79 24 -79 -20 0 -10 -4 -18 -10 -18 -5
0 -10 17 -10 38 0 20 -5 44 -10 52 -8 12 -10 11 -10 -7 0 -16 -7 -22 -27 -25
-19 -2 -29 -10 -33 -27 -11 -47 -30 -36 -30 18 0 28 -5 51 -10 51 -6 0 -9 -3
-9 -7 1 -5 1 -27 0 -50 l-1 -43 -72 2 c-40 0 -58 3 -40 5 36 5 41 27 9 47 -22
14 -51 -3 -55 -33 -5 -33 -30 -25 -35 12 l-4 32 -1 -32 c-2 -28 -6 -33 -26
-33 -20 0 -25 6 -29 33 l-4 32 -1 -32 c-3 -44 -32 -46 -32 -3 0 28 -3 30 -35
30 -31 0 -36 -3 -41 -30 -4 -16 -10 -30 -15 -30 -8 0 -14 31 -10 53 0 4 -3 7
-9 7 -5 0 -10 -14 -10 -31 0 -36 -21 -35 -30 2 -4 18 -13 25 -37 27 -29 3 -32
1 -35 -30 -5 -50 -23 -35 -26 22 -4 65 -22 65 -22 0 l0 -50 -35 0 -35 0 -2 53
-1 52 -6 -55 -6 -55 -37 3 c-21 2 -47 1 -58 -3 -20 -6 -21 -31 -11 -314 l1
-23 1233 7 c677 4 1279 7 1336 6 74 0 107 3 113 12 6 9 8 9 8 -1 0 -15 144
-15 174 1 12 6 21 5 26 -2 4 -7 20 -10 41 -6 57 10 218 13 275 6 31 -4 57 -4
63 2 5 5 15 6 23 1 7 -5 28 -9 45 -9 l33 0 0 167 0 168 -60 -6 c-55 -5 -60 -4
-60 14 0 35 -11 52 -35 52 -13 0 -26 -4 -29 -8 -2 -4 5 -8 17 -7 34 0 32 -19
-2 -28 -17 -4 -31 -12 -31 -17 0 -23 -30 5 -31 29 -1 25 -2 25 -8 -4 -10 -47
-25 -35 -32 25 -3 30 -6 43 -7 28 -2 -21 -6 -25 -22 -21 -25 7 -50 -13 -50
-39 0 -15 -5 -19 -20 -15 -11 3 -23 1 -26 -4 -3 -5 -14 -9 -25 -9 -15 0 -20 6
-17 21 4 31 35 49 48 29 6 -9 10 -10 10 -3 0 18 -16 24 -44 17 -17 -4 -26 -14
-28 -32 -5 -49 -32 -32 -39 23 l-6 50 -1 -52 -2 -53 -49 0 -49 0 8 34 c4 19 5
37 2 40 -2 3 1 12 8 21 10 11 10 15 0 15 -6 0 -14 -9 -17 -20z m-860 -68 c-22
-5 -26 4 -18 35 l8 28 12 -30 c11 -26 11 -30 -2 -33z m807 18 c14 -26 5 -40
-26 -40 -29 0 -42 24 -24 45 17 21 37 19 50 -5z m368 -8 c3 -19 -1 -22 -27
-22 -33 0 -41 16 -19 38 18 18 43 10 46 -16z m-2790 -10 c3 -18 -1 -22 -22
-22 -19 0 -26 5 -26 18 0 39 43 43 48 4z m140 16 c19 -19 14 -38 -11 -38 -31
0 -38 9 -26 31 11 22 20 24 37 7z m220 -5 c2 -8 -6 -13 -22 -13 -17 0 -26 5
-26 16 0 19 41 16 48 -3z m200 -11 c3 -18 -1 -22 -22 -22 -19 0 -26 5 -26 18
0 39 43 43 48 4z m110 11 c2 -8 -6 -13 -22 -13 -25 0 -33 10 -19 24 10 10 36
3 41 -11z m102 -8 c0 -18 -5 -25 -19 -25 -11 0 -23 5 -26 10 -11 18 3 40 25
40 15 0 20 -7 20 -25z m589 6 c12 -22 5 -31 -25 -31 -27 0 -36 12 -28 34 8 22
41 20 53 -3z m101 -6 c0 -20 -5 -25 -25 -25 -18 0 -25 5 -25 18 0 24 8 32 32
32 13 0 18 -7 18 -25z m440 0 c0 -20 -5 -25 -25 -25 -18 0 -25 5 -25 18 0 24
8 32 32 32 13 0 18 -7 18 -25z m-740 -15 c0 -5 -8 -10 -17 -10 -15 0 -16 2 -3
10 19 12 20 12 20 0z m1773 3 c-7 -2 -19 -2 -25 0 -7 3 -2 5 12 5 14 0 19 -2
13 -5z m-1026 -105 c-3 -8 -6 -5 -6 6 -1 11 2 17 5 13 3 -3 4 -12 1 -19z m80
16 c-3 -3 -12 -4 -19 -1 -8 3 -5 6 6 6 11 1 17 -2 13 -5z m170 -69 c0 -8 -4
-12 -9 -9 -5 3 -6 10 -3 15 9 13 12 11 12 -6z"/>
<path d="M2492 516 c7 -8 15 -12 17 -11 5 6 -10 25 -20 25 -5 0 -4 -6 3 -14z"/>
</g>
</svg>
